<?xml version="1.0" encoding="UTF-8" standalone="no"?>
<svg
   xmlns:dc="http://purl.org/dc/elements/1.1/"
   xmlns:cc="http://creativecommons.org/ns#"
   xmlns:rdf="http://www.w3.org/1999/02/22-rdf-syntax-ns#"
   xmlns:svg="http://www.w3.org/2000/svg"
   xmlns="http://www.w3.org/2000/svg"
   xmlns:sodipodi="http://sodipodi.sourceforge.net/DTD/sodipodi-0.dtd"
   xmlns:inkscape="http://www.inkscape.org/namespaces/inkscape"
   version="1.0"
   width="960.000000pt"
   height="960.000000pt"
   viewBox="0 0 960.000000 960.000000"
   preserveAspectRatio="xMidYMid meet"
   id="svg32"
   sodipodi:docname="logo-subscreasy.svg"
   inkscape:version="0.92.2 5c3e80d, 2017-08-06">
  <metadata
     id="metadata38">
    <rdf:RDF>
      <cc:Work
         rdf:about="">
        <dc:format>image/svg+xml</dc:format>
        <dc:type
           rdf:resource="http://purl.org/dc/dcmitype/StillImage" />
      </cc:Work>
    </rdf:RDF>
  </metadata>
  <defs
     id="defs36" />
  <sodipodi:namedview
     pagecolor="#ffffff"
     bordercolor="#666666"
     borderopacity="1"
     objecttolerance="10"
     gridtolerance="10"
     guidetolerance="10"
     inkscape:pageopacity="0"
     inkscape:pageshadow="2"
     inkscape:window-width="1433"
     inkscape:window-height="805"
     id="namedview34"
     showgrid="false"
     inkscape:zoom="0.55"
     inkscape:cx="914.16905"
     inkscape:cy="662.6443"
     inkscape:window-x="0"
     inkscape:window-y="0"
     inkscape:window-maximized="0"
     inkscape:current-layer="g30" />
  <g
     transform="matrix(0.1,0,0,-0.1,0,960)"
     id="g30"
     style="display:inline;fill:#000000;stroke:none">
    <text
       xml:space="preserve"
       style="font-style:normal;font-variant:normal;font-weight:bold;font-stretch:normal;font-size:783.35644531px;line-height:541.0055542px;font-family:'Apple SD Gothic Neo';-inkscape-font-specification:'Apple SD Gothic Neo, Bold';font-variant-ligatures:normal;font-variant-caps:normal;font-variant-numeric:normal;font-feature-settings:normal;text-align:center;letter-spacing:0px;word-spacing:0px;writing-mode:lr-tb;text-anchor:middle;fill:#001f3f;fill-opacity:1;stroke:none;stroke-width:8.69778824"
       x="4839.9072"
       y="-2801.533"
       id="text2991"
       transform="scale(0.9797014,-1.0207192)"
       inkscape:export-xdpi="96"
       inkscape:export-ydpi="96"><tspan
         sodipodi:role="line"
         id="tspan2989"
         x="4860.3071"
         y="-2801.533"
         style="font-style:normal;font-variant:normal;font-weight:bold;font-stretch:normal;font-size:999.99998535px;line-height:541.0055542px;font-family:'Apple SD Gothic Neo';-inkscape-font-specification:'Apple SD Gothic Neo, Bold';font-variant-ligatures:normal;font-variant-caps:normal;font-variant-numeric:normal;font-feature-settings:normal;text-align:center;letter-spacing:149.99999781px;writing-mode:lr-tb;text-anchor:middle;fill:#001f3f;fill-opacity:1;stroke-width:8.69778824">subscr<tspan
   style="fill:#0074d9;fill-opacity:1"
   id="tspan840">easy</tspan></tspan></text>
    <path
       d="m 3950,7769 c -116,-16 -204,-30 -240,-39 -19,-5 -57,-14 -85,-21 -279,-65 -595,-216 -845,-402 -128,-95 -378,-347 -476,-479 -118,-158 -225,-346 -295,-515 -5,-13 -13,-33 -18,-45 -13,-29 -65,-191 -79,-243 -40,-148 -70,-335 -75,-460 l -2,-60 -65,-33 c -244,-124 -423,-271 -580,-477 -56,-73 -170,-255 -170,-270 0,-3 -11,-28 -24,-58 -83,-180 -136,-435 -136,-651 0,-83 3,-115 13,-117 6,-2 1740,-2 3852,1 l 3840,5 36,22 c 86,54 78,172 -14,214 -41,18 -131,19 -3745,19 -2037,0 -3708,3 -3713,6 -32,19 30,265 111,440 66,144 198,322 310,420 24,21 54,47 65,57 76,71 340,217 389,217 8,0 17,4 20,9 3,5 18,11 33,14 16,3 55,12 88,20 97,24 187,37 265,37 119,0 170,41 170,135 0,35 -6,49 -30,74 -17,17 -46,33 -66,37 -50,9 -330,-18 -379,-37 -16,-6 -17,2 -10,76 7,74 15,117 47,255 141,596 563,1120 1123,1394 145,71 289,124 415,154 171,40 176,41 358,56 132,10 194,10 320,0 178,-14 194,-16 360,-55 154,-36 396,-135 551,-225 529,-307 922,-870 1020,-1464 24,-150 31,-214 31,-303 0,-81 3,-99 23,-128 39,-58 98,-74 162,-44 53,26 60,52 58,204 -2,154 -18,279 -55,441 -18,78 -89,301 -115,360 -53,121 -138,284 -192,368 -18,29 -32,54 -30,56 5,4 81,22 144,35 108,22 199,31 315,31 296,0 595,-82 860,-236 256,-149 516,-434 642,-704 27,-57 80,-193 88,-225 5,-16 15,-55 23,-85 8,-30 20,-84 27,-120 16,-76 32,-105 71,-126 56,-28 137,-5 164,47 17,31 20,101 6,145 -5,16 -14,54 -21,84 -46,209 -142,429 -272,624 -144,214 -350,416 -563,548 -55,34 -262,140 -310,158 -63,24 -136,49 -175,60 -106,30 -114,31 -280,61 -86,15 -440,15 -527,0 -118,-21 -177,-33 -203,-41 -14,-4 -45,-13 -70,-20 -25,-6 -52,-16 -60,-20 -11,-6 -55,31 -165,139 -137,134 -246,225 -350,292 -103,66 -135,85 -239,138 -261,135 -503,207 -839,251 -92,12 -395,11 -487,-1 z"
       id="path2"
       inkscape:connector-curvature="0"
       style="fill:#001f3f;fill-opacity:0.94117647" />
    <path
       d="m 4286,7007 c -59,-56 -60,-115 -3,-172 31,-30 37,-31 162,-44 126,-12 280,-45 299,-62 6,-5 16,-9 24,-9 25,0 147,-63 232,-121 194,-132 343,-314 419,-514 13,-33 27,-69 31,-80 5,-11 11,-33 15,-50 3,-16 10,-50 16,-75 5,-25 13,-92 17,-150 5,-58 13,-115 20,-127 38,-69 131,-85 192,-34 l 35,29 -1,132 c -1,72 -7,151 -13,176 -6,24 -16,65 -22,92 -32,137 -102,292 -192,427 -138,205 -318,364 -532,469 -55,27 -109,52 -120,57 -60,22 -86,30 -140,44 -112,29 -220,45 -312,45 -90,0 -92,-1 -127,-33 z"
       id="path4"
       inkscape:connector-curvature="0"
       style="fill:#001f3f;fill-opacity:1" />
    <path
       d="m 4285,6527 c -59,-59 -58,-118 1,-174 29,-27 43,-33 79,-33 44,0 118,-13 190,-33 141,-39 274,-138 359,-267 65,-100 106,-218 106,-307 0,-112 46,-173 131,-173 40,0 55,5 81,29 l 33,30 -1,110 c 0,61 -7,130 -14,153 -63,209 -121,311 -244,433 -169,168 -393,265 -609,265 -76,0 -80,-1 -112,-33 z"
       id="path6"
       inkscape:connector-curvature="0"
       style="fill:#001f3f;fill-opacity:1" />
    <path
       d="m 4416,5958 c -23,-7 -56,-28 -81,-52 -82,-82 -82,-200 0,-281 144,-144 384,-8 334,190 -17,65 -78,127 -141,143 -54,14 -59,14 -112,0 z"
       id="path8"
       inkscape:connector-curvature="0"
       style="stroke:none;stroke-opacity:1;fill:#0074d9;fill-opacity:1" />
    <path
       style="fill:#0074d9;fill-opacity:0;stroke-width:2.08333325"
       d="m 587.20177,534.63 c -9.94004,-4.3279 -15.4483,-12.74504 -15.4483,-23.60645 0,-8.12221 1.08889,-10.42803 8.35656,-17.6957 7.90609,-7.90609 8.88489,-8.29701 18.15761,-7.25184 27.00421,3.04377 32.48661,38.23522 7.57795,48.64272 -8.36794,3.49635 -10.43239,3.48653 -18.64382,-0.0887 z"
       id="path40"
       inkscape:connector-curvature="0"
       transform="matrix(7.5,0,0,-7.5,0,9600)" />
    <path
       style="fill:#0074d9;fill-opacity:0;stroke-width:2.08333325"
       d="m 579.2167,528.25304 c -10.35013,-10.35014 -11.19555,-21.23257 -2.45634,-31.61853 11.0092,-13.0837 25.88489,-14.55715 37.43345,-3.70784 16.62683,15.62009 5.39129,43.4146 -17.54973,43.4146 -8.07072,0 -10.43767,-1.09852 -17.42738,-8.08823 z"
       id="path847"
       inkscape:connector-curvature="0"
       transform="matrix(7.5,0,0,-7.5,0,9600)" />
    <path
       style="fill:#0074d9;fill-opacity:0;stroke-width:2.08333325"
       d="m 579.2167,528.25304 c -10.35013,-10.35014 -11.19555,-21.23257 -2.45634,-31.61853 11.0092,-13.0837 25.88489,-14.55715 37.43345,-3.70784 16.62683,15.62009 5.39129,43.4146 -17.54973,43.4146 -8.07072,0 -10.43767,-1.09852 -17.42738,-8.08823 z"
       id="path849"
       inkscape:connector-curvature="0"
       transform="matrix(7.5,0,0,-7.5,0,9600)" />
    <path
       style="fill:#0074d9;fill-opacity:0;stroke-width:2.08333325"
       d="m 582.20113,531.99066 c -6.57209,-5.16961 -11.70069,-14.41205 -11.68987,-21.06676 0.004,-2.63503 1.83452,-7.7869 4.0672,-11.4486 11.11918,-18.23597 32.61033,-18.23597 44.05056,0 9.79373,15.61143 -2.7588,36.86597 -21.77233,36.86597 -6.09867,0 -10.95884,-1.44278 -14.65556,-4.35061 z"
       id="path853"
       inkscape:connector-curvature="0"
       transform="matrix(7.5,0,0,-7.5,0,9600)" />
    <path
       style="fill:#5f8dd3;fill-opacity:0;stroke-width:2.08333325"
       d="m 579.2167,528.25304 c -10.35013,-10.35014 -11.19555,-21.23257 -2.45634,-31.61853 11.0092,-13.0837 25.88489,-14.55715 37.43345,-3.70784 16.62683,15.62009 5.39129,43.4146 -17.54973,43.4146 -8.07072,0 -10.43767,-1.09852 -17.42738,-8.08823 z"
       id="path855"
       inkscape:connector-curvature="0"
       transform="matrix(7.5,0,0,-7.5,0,9600)" />
    <path
       style="fill:#0066ff;fill-opacity:0;stroke-width:2.08333325"
       d="m 579.2167,528.25304 c -10.35013,-10.35014 -11.19555,-21.23257 -2.45634,-31.61853 11.0092,-13.0837 25.88489,-14.55715 37.43345,-3.70784 16.62683,15.62009 5.39129,43.4146 -17.54973,43.4146 -8.07072,0 -10.43767,-1.09852 -17.42738,-8.08823 z"
       id="path857"
       inkscape:connector-curvature="0"
       transform="matrix(7.5,0,0,-7.5,0,9600)" />
    <flowRoot
       xml:space="preserve"
       id="flowRoot3001"
       style="fill:black;fill-opacity:1;stroke:none;font-family:sans-serif;font-style:normal;font-weight:normal;font-size:40px;line-height:1.25;letter-spacing:0px;word-spacing:0px"><flowRegion
         id="flowRegion3003"><rect
           id="rect3005"
           width="24.675325"
           height="54.545456"
           x="216.88312"
           y="900.77924" /></flowRegion><flowPara
         id="flowPara3007" /></flowRoot>    <flowRoot
       xml:space="preserve"
       id="flowRoot3009"
       style="fill:black;fill-opacity:1;stroke:none;font-family:sans-serif;font-style:normal;font-weight:normal;font-size:40px;line-height:1.25;letter-spacing:0px;word-spacing:0px"><flowRegion
         id="flowRegion3011"><rect
           id="rect3013"
           width="1002.5974"
           height="149.35065"
           x="125.97403"
           y="860.51947" /></flowRegion><flowPara
         id="flowPara3015" /></flowRoot>  </g>
</svg>
